<svg xmlns="http://www.w3.org/2000/svg" enable-background="new 0 0 24 24" viewBox="0 0 24 24" id="Finance"><path fill="#1c1678" d="M23.5 11c-.227 0-.445-.023-.651-.064.095-.431.151-.909.151-1.436 0-.827-.673-1.5-1.5-1.5S20 8.673 20 9.5c0 .822.658 1.597 1.601 2.061a4.292 4.292 0 0 1-.494.859c-1.219-2.019-3.594-3.559-6.491-4.15a3.495 3.495 0 0 0 1.029-1.284C17.506 6.907 19 5.38 19 3.5 19 1.57 17.43 0 15.5 0a3.498 3.498 0 0 0-3.158 2.016A3.496 3.496 0 0 0 9 5.5c0 1.049.474 1.981 1.208 2.623-1.677.229-3.254.777-4.58 1.603A3.468 3.468 0 0 0 3.5 9a.5.5 0 0 0-.5.5c0 .69.211 1.365.602 1.942-.67.783-1.144 1.654-1.39 2.558H2c-1.103 0-2 .897-2 2 0 1.113.564 2.128 1.508 2.718L5 20.893V23.5a.5.5 0 0 0 .5.5h2a.5.5 0 0 0 .447-.276l.592-1.184c2.213.61 4.709.61 6.922 0l.592 1.184A.5.5 0 0 0 16.5 24h2a.5.5 0 0 0 .5-.5v-2.647c1.91-1.405 3-3.343 3-5.353a5.76 5.76 0 0 0-.405-2.097 5.28 5.28 0 0 0 .953-1.51c.306.069.626.107.952.107a.5.5 0 0 0 0-1zm-1.601-.415C21.343 10.27 21 9.833 21 9.5a.5.5 0 0 1 1 0c0 .395-.037.756-.101 1.085z" class="color303c42 svgShape"></path><path fill="#8576ff" d="M18.215 20.184a.503.503 0 0 0-.215.411V23h-1.191l-.641-1.282a.497.497 0 0 0-.597-.253c-2.261.71-4.881.71-7.142 0a.5.5 0 0 0-.597.253L7.191 23H6v-2.384a.5.5 0 0 0-.235-.424L2.038 17.87A2.193 2.193 0 0 1 1 16c0-.551.449-1 1-1h.608a.5.5 0 0 0 .491-.404c.192-.985.716-1.947 1.515-2.782a.5.5 0 0 0 .015-.675 2.505 2.505 0 0 1-.563-1.074c.437.102.84.322 1.171.643a.498.498 0 0 0 .629.055C7.542 9.626 9.72 9 12 9c4.962 0 9 2.916 9 6.5 0 1.776-.989 3.44-2.785 4.684z" class="colore57373 svgShape"></path><path fill="#a3ffd6" d="M2 15.5h.608a.5.5 0 0 0 .491-.404c.192-.985.716-1.947 1.515-2.782a.494.494 0 0 0 .062-.595c-.019.033-.035.067-.062.095-.799.835-1.323 1.797-1.515 2.782a.5.5 0 0 1-.491.404H2c-.551 0-1 .449-1 1 0 .105.025.205.039.307A.987.987 0 0 1 2 15.5z" opacity=".2" class="colorffffff svgShape"></path><path fill="#1c1678" d="M5 13c-.551 0-1 .449-1 1s.449 1 1 1 1-.449 1-1-.449-1-1-1zM15.656 10.525c-2.093-.687-5.219-.687-7.312 0a.5.5 0 1 0 .312.95c1.895-.622 4.794-.622 6.688 0a.499.499 0 1 0 .312-.95z" class="color303c42 svgShape"></path><circle cx="15.5" cy="3.5" r="2.5" fill="#7bc9ff" class="colorffca28 svgShape"></circle><path fill="#7bc9ff" d="M10 5.5c0-1.215.872-2.227 2.045-2.448-.019.149-.045.295-.045.448 0 .255.031.502.083.741A.486.486 0 0 0 12 4.5v2a.5.5 0 0 0 1 0v-.558c.427.437.97.751 1.575.919A2.483 2.483 0 0 1 12.5 8 2.503 2.503 0 0 1 10 5.5z" class="colorffca28 svgShape"></path><path fill="#7bc9ff" d="M10 5.5c0-1.215.872-2.227 2.045-2.448-.019.149-.045.295-.045.448 0 .255.031.502.083.741A.486.486 0 0 0 12 4.5v2a.5.5 0 0 0 1 0v-.558c.427.437.97.751 1.575.919A2.483 2.483 0 0 1 12.5 8 2.503 2.503 0 0 1 10 5.5z" class="colorffca28 svgShape"></path><path d="M13 5.942V6.5a.5.5 0 0 1-1 0v-2c0-.097.035-.182.083-.259A3.476 3.476 0 0 1 12 3.5c0-.153.026-.299.045-.448a2.527 2.527 0 0 0-.844.326A3.451 3.451 0 0 0 11 4.5c0 1.544 1.029 2.856 2.419 3.32a2.486 2.486 0 0 0 1.156-.959A3.502 3.502 0 0 1 13 5.942z" opacity=".1" fill="#000000" class="color000000 svgShape"></path><path fill="#1c1678" d="M15.5 5a.5.5 0 0 0 .5-.5v-2a.5.5 0 0 0-1 0v2a.5.5 0 0 0 .5.5z" class="color303c42 svgShape"></path><path fill="#a3ffd6" d="M5.237 11.208a.498.498 0 0 0 .629.055C7.542 10.126 9.72 9.5 12 9.5c4.846 0 8.799 2.783 8.983 6.251.004-.084.017-.167.017-.251 0-3.584-4.038-6.5-9-6.5-2.28 0-4.458.626-6.134 1.763a.497.497 0 0 1-.629-.055 2.498 2.498 0 0 0-1.171-.643c.049.204.127.4.227.587.347.118.673.293.944.556z" opacity=".2" class="colorffffff svgShape"></path><linearGradient id="a" x1="3.297" x2="21.988" y1="8.486" y2="17.202" gradientUnits="userSpaceOnUse"><stop offset="0" stop-color="#ffffff" stop-opacity=".2" class="stopColorffffff svgShape"></stop><stop offset="1" stop-color="#ffffff" stop-opacity="0" class="stopColorffffff svgShape"></stop></linearGradient><path fill="url(#a)" d="M23.5 11c-.227 0-.445-.023-.651-.064.095-.431.151-.909.151-1.436 0-.827-.673-1.5-1.5-1.5S20 8.673 20 9.5c0 .822.658 1.597 1.601 2.061a4.292 4.292 0 0 1-.494.859c-1.219-2.019-3.594-3.559-6.491-4.15a3.495 3.495 0 0 0 1.029-1.284C17.506 6.907 19 5.38 19 3.5 19 1.57 17.43 0 15.5 0a3.498 3.498 0 0 0-3.158 2.016A3.496 3.496 0 0 0 9 5.5c0 1.049.474 1.981 1.208 2.623-1.677.229-3.254.777-4.58 1.603A3.468 3.468 0 0 0 3.5 9a.5.5 0 0 0-.5.5c0 .69.211 1.365.602 1.942-.67.783-1.144 1.654-1.39 2.558H2c-1.103 0-2 .897-2 2 0 1.113.564 2.128 1.508 2.718L5 20.893V23.5a.5.5 0 0 0 .5.5h2a.5.5 0 0 0 .447-.276l.592-1.184c2.213.61 4.709.61 6.922 0l.592 1.184A.5.5 0 0 0 16.5 24h2a.5.5 0 0 0 .5-.5v-2.647c1.91-1.405 3-3.343 3-5.353a5.76 5.76 0 0 0-.405-2.097 5.28 5.28 0 0 0 .953-1.51c.306.069.626.107.952.107a.5.5 0 0 0 0-1zm-1.601-.415C21.343 10.27 21 9.833 21 9.5a.5.5 0 0 1 1 0c0 .395-.037.756-.101 1.085z"></path></svg>