<?xml version="1.0" encoding="utf-8"?>
<!-- Generator: Adobe Illustrator 27.5.0, SVG Export Plug-In . SVG Version: 6.00 Build 0)  -->
<svg version="1.1" xmlns="http://www.w3.org/2000/svg" xmlns:xlink="http://www.w3.org/1999/xlink" x="0px" y="0px"
	 viewBox="0 0 500 500" style="enable-background:new 0 0 500 500;" xml:space="preserve">
<defs>
</defs>
	<g id="Background_Simple" filter="url(#blurMe)">
	<g>
		<path style="fill:#92E3A9;" d="M383.163,133.143c-3.35-6.492-6.862-12.887-10.857-18.98
			C326.195,43.845,202.699,5.565,141.507,78.247c-14.585,17.323-19.668,38.256-29.484,58.123
			c-22.327,45.185-64.042,72.199-90.198,114.039c-20.275,32.434-17.572,74.002-6.262,109.064
			c12.291,38.1,33.921,64.709,68.519,84.936c38.787,22.676,80.272,16.38,122.197,8.489c18.855-3.549,38.295-7.169,57.574-5.815
			c24.137,1.696,47.968,8.527,71.915,11.848c24.905,3.453,50.745,4.27,74.736-3.256c76.83-24.1,95.031-137.037,63.437-201.732
			c-11.184-22.9-30.138-40.567-47.738-58.492C407.204,176.101,395.559,157.164,383.163,133.143z"/>
		<path style="opacity:0.7;fill:#FFFFFF;" d="M383.163,133.143c-3.35-6.492-6.862-12.887-10.857-18.98
			C326.195,43.845,202.699,5.565,141.507,78.247c-14.585,17.323-19.668,38.256-29.484,58.123
			c-22.327,45.185-64.042,72.199-90.198,114.039c-20.275,32.434-17.572,74.002-6.262,109.064
			c12.291,38.1,33.921,64.709,68.519,84.936c38.787,22.676,80.272,16.38,122.197,8.489c18.855-3.549,38.295-7.169,57.574-5.815
			c24.137,1.696,47.968,8.527,71.915,11.848c24.905,3.453,50.745,4.27,74.736-3.256c76.83-24.1,95.031-137.037,63.437-201.732
			c-11.184-22.9-30.138-40.567-47.738-58.492C407.204,176.101,395.559,157.164,383.163,133.143z"/>
	</g>
</g>
<g id="Floor"  filter="url(#blurMe)">

		<line style="fill:none;stroke:#263238;stroke-linecap:round;stroke-linejoin:round;stroke-miterlimit:10;" x1="20.095" y1="449.28" x2="472.873" y2="449.28"/>
</g>
<g id="Arrows_2_1_"  filter="url(#blurMe)">
	<path style="fill:none;stroke:#263238;stroke-miterlimit:10;" d="M206.571,44.724l0.991,14.396l57.361-4.004l-84.773,90.598
		c-3.487,3.727-3.293,9.575,0.434,13.063c1.783,1.667,4.05,2.493,6.313,2.493c2.468,0,4.93-0.983,6.75-2.927l84.792-90.618
		l-0.198,57.53l14.43,0.034l0.278-86.576L206.571,44.724z"/>
	<path style="fill:none;stroke:#263238;stroke-miterlimit:10;" d="M415.422,258.035l0.506,7.349l29.282-2.044l-43.276,46.249
		c-1.78,1.903-1.681,4.888,0.222,6.669c0.91,0.851,2.067,1.273,3.223,1.273c1.26,0,2.517-0.502,3.446-1.494l43.286-46.26
		l-0.101,29.368l7.366,0.017l0.142-44.196L415.422,258.035z"/>
	<polygon style="fill:none;stroke:#263238;stroke-miterlimit:10;" points="180.398,70.395 126.646,94.541 139.149,99.072 
		107.833,131.908 123.447,146.437 154.762,113.6 160.181,125.744 	"/>
	<polygon style="fill:none;stroke:#263238;stroke-miterlimit:10;" points="144.229,362.423 90.477,386.569 102.98,391.1 
		71.664,423.937 87.278,438.465 118.594,405.628 124.012,417.773 	"/>
	<path style="fill:none;stroke:#263238;stroke-miterlimit:10;" d="M174.268,216.315l3.615,7.044l30.549-15.671l-29.953,32.297
		c-11.654,12.566-28.168,19.774-45.306,19.774H34.83v12h98.343c20.466,0,40.187-8.607,54.105-23.613l29.952-32.296l-13.329,31.641
		l7.302,3.08l28.583-67.865L174.268,216.315z"/>
</g>
<g id="Character">
	<g>
		<polygon style="fill:#FFFFFF;stroke:#263238;stroke-linecap:round;stroke-linejoin:round;stroke-miterlimit:10;" points="
			359.051,197.49 354.002,194.345 347.359,201.07 352.151,206.677 		"/>
		<path style="fill:#263238;stroke:#263238;stroke-linecap:round;stroke-linejoin:round;stroke-miterlimit:10;" d="M382.127,443.027
			c0,0,7.846,6.672,9.306,7.698c1.46,1.026,12.022,5.529,12.022,5.529s0.53,1.228-0.825,2.391s-14.152,2.253-17.927,1.966
			c-3.775-0.287-9.571-3.454-10.539-4.034c-0.968-0.58-5.284-5.543-5.284-5.543l-2.105,1.826l-9.475-4.713
			c0,0,0.822-5.682,2.428-8.11c1.606-2.429,5.199-5.173,5.199-5.173L382.127,443.027z"/>
		<path style="fill:#263238;stroke:#263238;stroke-linecap:round;stroke-linejoin:round;stroke-miterlimit:10;" d="M241.187,446.959
			l-5.646-1.215c0,0-8.731-5.532-10.481-6.074c-1.75-0.542-4.229,0.048-5.939,3.579l-2.378,5.914l1.491,1.652
			c0,0-4.287,2.089-4.985,3.846c-0.698,1.758-5.631,6.698-6.727,13.177c-1.096,6.479,0.876,5.129,1.642,4.779
			c0.767-0.351,12.74-8.767,14.563-9.952c1.823-1.185,13.935-3.496,13.935-3.496S238.71,448.724,241.187,446.959z"/>
		<g>
			<path style="fill:#92E3A9;stroke:#263238;stroke-linecap:round;stroke-linejoin:round;stroke-miterlimit:10;" d="
				M289.791,355.753c0,0,0.673,17.7,4.23,41.542c3.557,23.841,5.842,35.049,5.842,35.049s-2.836-1.34-2.94,0.327
				c-0.104,1.668,0.318,2.755,0.318,2.755l-56.055,11.533c0,0-3.228,2.004-3.697,7.568s-0.24,6.477-0.24,6.477
				s53.763-0.02,67.962-0.523c14.199-0.504,22.973-2.407,24.025-3.566c1.052-1.159,2.199-4.171,1.988-4.714
				c-0.211-0.544,4.526-43.813,4.636-49.175c0.109-5.362,3.741-18.099,3.741-18.099s43.236-3.574,48.405-3.639l2.791,0.419
				l-25.87,53.16c0,0,4.34,5.701,10.344,7.626c6.004,1.926,8.944,1.598,8.944,1.598s0.788-2.809,1.314-3.389
				c0.526-0.58,0.267-5.924,0.213-7.03c-0.054-1.106,33.055-45.935,38.91-54.716c5.855-8.781,6.481-14.907,4.707-17.222
				c-1.775-2.315-46.929-15.458-57.199-17.731c-10.27-2.273-22.968-1.288-22.968-1.288s-12.12,9.085-23.192,13.131
				C314.929,359.892,289.791,355.753,289.791,355.753z"/>
			<g>
				<path style="fill:none;stroke:#263238;stroke-linecap:round;stroke-linejoin:round;stroke-miterlimit:10;" d="M340.654,383.767
					c0,0,7.21-15.127,7.745-15.522"/>
				<path style="fill:none;stroke:#263238;stroke-linecap:round;stroke-linejoin:round;stroke-miterlimit:10;" d="M335.018,376.64
					c-0.976,1.062-1.942,2.108-2.871,3.106"/>
				<path style="fill:none;stroke:#263238;stroke-linecap:round;stroke-linejoin:round;stroke-miterlimit:10;" d="M348.279,361.97
					c0,0-5.13,5.762-10.659,11.826"/>
				<path style="fill:none;stroke:#263238;stroke-linecap:round;stroke-linejoin:round;stroke-miterlimit:10;" d="M305.867,363.471
					c0,0,5.473,6.2,3.166,8.159c-2.306,1.959-12.65,5.785-12.65,5.785"/>
				<path style="fill:none;stroke:#263238;stroke-linecap:round;stroke-linejoin:round;stroke-miterlimit:10;" d="M298.059,405.778
					c1.227,8.789,2.541,17.366,2.922,19.123c0.714,3.29,1.724,5.089,1.724,5.089s-1.911,2.494-1.34,2.836s2.143,2.297,2.143,2.297
					l-3.115,0.52l0.063,1.29"/>
				<path style="fill:none;stroke:#263238;stroke-linecap:round;stroke-linejoin:round;stroke-miterlimit:10;" d="M295.826,362.111
					c0,0-0.661,16.842-0.102,24.573c0.205,2.834,0.87,8.282,1.665,14.21"/>
				
					<line style="fill:none;stroke:#263238;stroke-linecap:round;stroke-linejoin:round;stroke-miterlimit:10;" x1="249.017" y1="448.21" x2="241.506" y2="449.715"/>
				
					<line style="fill:none;stroke:#263238;stroke-linecap:round;stroke-linejoin:round;stroke-miterlimit:10;" x1="295.929" y1="438.815" x2="254.432" y2="447.126"/>
				<path style="fill:none;stroke:#263238;stroke-linecap:round;stroke-linejoin:round;stroke-miterlimit:10;" d="M392.623,381.247
					c0,0,8.118-0.209,16.514-2.278"/>
				<path style="fill:none;stroke:#263238;stroke-linecap:round;stroke-linejoin:round;stroke-miterlimit:10;" d="M419.683,375.503
					c0,0-7.288,5.895-16.44,7.632"/>
				<path style="fill:none;stroke:#263238;stroke-linecap:round;stroke-linejoin:round;stroke-miterlimit:10;" d="M387.524,370.326
					c1.47-0.7,2.858-1.424,4.136-2.174"/>
				<path style="fill:none;stroke:#263238;stroke-linecap:round;stroke-linejoin:round;stroke-miterlimit:10;" d="M344.459,382.78
					c0,0,21.677-3.783,37.957-10.243"/>
			</g>
		</g>
		<g>
			<path style="fill:#FFFFFF;stroke:#263238;stroke-linecap:round;stroke-linejoin:round;stroke-miterlimit:10;" d="
				M285.391,302.012c0,0,3.773,38.992,3.801,39.556c0.027,0.564-1.875,15.723-0.326,16.59c1.549,0.867,5.352,1.624,10.677,2.684
				c5.325,1.06,16.063,1.105,23.515-0.575c7.452-1.68,22.317-9.746,23.578-10.937c1.261-1.191,4.273-5.104,4.388-6.616
				c0.115-1.512-4.567-35.94-4.567-35.94l1.435-17.02l8.618-20.382c0,0,27.929-18.304,32.059-22.46
				c4.13-4.155,14.67-15.967,14.428-17.085c-0.243-1.118-20.255-17.664-26.469-21.506c-6.213-3.842-15.991-11.279-17.476-10.83
				c-1.485,0.449-8.834,8.15-8.17,10.19s21.523,24.383,21.523,24.383l-14.659,8.433l-34.015,17.093c0,0-17.241,1.778-27.096,8.282
				c-9.855,6.505-28.526,21.535-25.186,24.387C274.789,293.109,285.391,302.012,285.391,302.012z"/>
			<g>
				
					<line style="fill:none;stroke:#263238;stroke-linecap:round;stroke-linejoin:round;stroke-miterlimit:10;" x1="368.983" y1="250.168" x2="370.53" y2="247.786"/>
				<polyline style="fill:none;stroke:#263238;stroke-linecap:round;stroke-linejoin:round;stroke-miterlimit:10;" points="
					363.714,250.942 356.509,269.372 366.725,253.644 				"/>
				<path style="fill:none;stroke:#263238;stroke-linecap:round;stroke-linejoin:round;stroke-miterlimit:10;" d="M374.265,231.596
					c0,0,9.446-3.283,12.31-2.48c2.864,0.803,3.858,1.885,3.858,1.885"/>
				<path style="fill:none;stroke:#263238;stroke-linecap:round;stroke-linejoin:round;stroke-miterlimit:10;" d="M390.27,227.618
					c0,0-5.146-1.257-7.355-0.208c-2.209,1.049-3.121,1.658-3.121,1.658"/>
			</g>
			<g>
				<path style="fill:none;stroke:#263238;stroke-linecap:round;stroke-linejoin:round;stroke-miterlimit:10;" d="M309.036,338.374
					c0.787,0.605,1.557,1.13,2.301,1.556"/>
				<path style="fill:none;stroke:#263238;stroke-linecap:round;stroke-linejoin:round;stroke-miterlimit:10;" d="M289.204,314.634
					c0,0,9.194,14.176,17.533,21.798"/>
				<path style="fill:none;stroke:#263238;stroke-linecap:round;stroke-linejoin:round;stroke-miterlimit:10;" d="M312.106,345.04
					c1.141,0.421,2.365,0.788,3.674,1.078"/>
				<path style="fill:none;stroke:#263238;stroke-linecap:round;stroke-linejoin:round;stroke-miterlimit:10;" d="M300.247,336.512
					c0,0,3.312,4.769,10.121,7.819"/>
			</g>
		</g>
		<g>
			<polygon style="fill:#263238;stroke:#263238;stroke-linecap:round;stroke-linejoin:round;stroke-miterlimit:10;" points="
				339.572,269.132 344.712,278.462 341.641,345.459 351.73,355.976 359.009,342.172 347.355,278.334 351.251,270.401 
				347.836,263.025 			"/>
			<g>
				<path style="fill:#FFFFFF;stroke:#263238;stroke-linecap:round;stroke-linejoin:round;stroke-miterlimit:10;" d="
					M344.257,212.322c0,0,10.327,5.626,10.396,7.037s1.429,3.544,1.429,3.544s6.146,3.63,6.983,4.689
					c0.837,1.059-0.98,5.703-0.98,5.703s3.783,6.729,3.836,7.826c0.053,1.097-0.827,2.397-1.565,3.375
					c-0.738,0.978-7.983,3.843-7.983,3.843l-8.649,19.272c0,0-1.552,0.389-2.5,0.278c-0.948-0.111-19.754-18.095-19.754-18.095
					l1.969-5.237l-7.11-13.795c0,0,5.31-13.611,11.6-16.744C338.217,210.886,344.257,212.322,344.257,212.322z"/>
				<polygon style="fill:#263238;stroke:#263238;stroke-linecap:round;stroke-linejoin:round;stroke-miterlimit:10;" points="
					356.372,248.34 348.609,249.536 353.715,253.977 				"/>
				<path style="fill:none;stroke:#263238;stroke-linecap:round;stroke-linejoin:round;stroke-miterlimit:10;" d="M354.12,220.49
					c0,0-3.532-1.557-5.395,2.147"/>
				<path style="fill:#263238;" d="M354.158,224.127c0.422,0.754,0.415,1.561-0.016,1.802c-0.431,0.241-1.122-0.174-1.545-0.928
					c-0.422-0.754-0.415-1.561,0.016-1.802C353.044,222.957,353.736,223.373,354.158,224.127z"/>
				<path style="fill:none;stroke:#263238;stroke-linecap:round;stroke-linejoin:round;stroke-miterlimit:10;" d="M361.414,236.249
					c0,0-1.456-1.099-3.733,0.181"/>
			</g>
			<path style="fill:#263238;stroke:#263238;stroke-linecap:round;stroke-linejoin:round;stroke-miterlimit:10;" d="
				M340.266,214.243c0,0,6.843-1.431,7.692-3.358c0.849-1.926,1.15-8.697-2.245-7.432c-3.395,1.264-3.984,2.078-3.984,2.078
				s-5.866-7.571-8.894-5.225c-3.028,2.346-1.183,4.77-1.183,4.77s-4.828,0.863-6.454,2.984c-1.625,2.121,0.114,2.351,0.114,2.351
				s-11.555,7.944-11.89,17.229c-0.335,9.285,10.397,16.778,14.116,18.954s4.816,2.123,6.345,1.263
				c1.529-0.86,4.765-5.415,4.765-5.415s-5.183-3.205-6.073-5.361c-0.89-2.156,0.078-4.874,2.108-5.13
				c2.03-0.255,3.838,1.385,4.032,2.161c0.195,0.776,2.172-0.577,2.172-0.577s-2.212-3.506-2.9-4.73
				c-0.688-1.224,4.398-6.497,4.158-8.214c-0.24-1.717-6.712-2.345-7.213-2.95C334.431,217.04,340.266,214.243,340.266,214.243z"/>
			<polygon style="fill:#FFFFFF;stroke:#263238;stroke-linecap:round;stroke-linejoin:round;stroke-miterlimit:10;" points="
				324.231,247.254 347.723,267.611 339.491,275.862 321.412,251.874 			"/>
			<polygon style="fill:#FFFFFF;stroke:#263238;stroke-linecap:round;stroke-linejoin:round;stroke-miterlimit:10;" points="
				350.063,262.714 352.437,265.452 347.723,267.611 			"/>
			<polygon style="fill:#FFFFFF;stroke:#263238;stroke-linecap:round;stroke-linejoin:round;stroke-miterlimit:10;" points="
				352.437,265.452 354.304,274.532 347.723,267.611 			"/>
		</g>
		<g>
			<g>
				<path style="fill:#FFFFFF;stroke:#263238;stroke-linecap:round;stroke-linejoin:round;stroke-miterlimit:10;" d="
					M330.633,311.754c0,0,17.516-0.238,18.126-0.267c0.61-0.03,7.819,5.735,7.665,6.762c-0.154,1.026-2.61,5.018-2.61,5.018
					s-3.81,5.484-4.991,6.356c-1.181,0.872-0.957,1.269-3.001,1.164c-2.043-0.105-4.145-1.43-4.145-1.43s-10.052-1.347-11.574-3.311
					c-1.522-1.964-4.264-3.869-4.264-3.869L330.633,311.754z"/>
				
					<line style="fill:none;stroke:#263238;stroke-linecap:round;stroke-linejoin:round;stroke-miterlimit:10;" x1="348.768" y1="315.599" x2="353.985" y2="322.6"/>
				
					<line style="fill:none;stroke:#263238;stroke-linecap:round;stroke-linejoin:round;stroke-miterlimit:10;" x1="345.337" y1="319.642" x2="351.884" y2="325.704"/>
				
					<line style="fill:none;stroke:#263238;stroke-linecap:round;stroke-linejoin:round;stroke-miterlimit:10;" x1="343.464" y1="324.861" x2="349.141" y2="328.463"/>
				<path style="fill:#FFFFFF;stroke:#263238;stroke-linecap:round;stroke-linejoin:round;stroke-miterlimit:10;" d="
					M356.423,318.248c0,0,0.973,5.062,1.271,6.048c0.298,0.986-1.632,2.456-2.66,1.88c-1.028-0.576-1.221-2.911-1.221-2.911
					L356.423,318.248z"/>
			</g>
			<polygon style="fill:none;stroke:#263238;stroke-linecap:round;stroke-linejoin:round;stroke-miterlimit:10;" points="
				324.519,307.566 330.633,311.754 325.839,322.176 321.401,318.927 			"/>
			<path style="fill:#FFFFFF;stroke:#263238;stroke-linecap:round;stroke-linejoin:round;stroke-miterlimit:10;" d="
				M332.666,278.027c0,0,0.986-13.295-2.806-20.041c-3.792-6.746-12.322-6.128-25.971-1.798
				c-13.649,4.33-49.462,30.727-50.147,33.409c-0.685,2.683,7.58,9.211,12.355,11.018s49.02,19.023,49.863,19.594
				c0.843,0.57,4.329,1.013,5.441-1.283c1.112-2.296,4.436-9.386,3.118-11.361c-1.319-1.974-21.394-16.694-21.394-16.694
				l19.716-9.516"/>
			<path style="fill:none;stroke:#263238;stroke-linecap:round;stroke-linejoin:round;stroke-miterlimit:10;" d="M276.351,279.712
				c-1.2,0.338-2.215,0.693-2.863,0.979"/>
			<path style="fill:none;stroke:#263238;stroke-linecap:round;stroke-linejoin:round;stroke-miterlimit:10;" d="M303.126,290.872
				c0,0-13.089-9.352-15.841-11.461c-1.687-1.292-5.515-0.95-8.823-0.227"/>
			<path style="fill:none;stroke:#263238;stroke-linecap:round;stroke-linejoin:round;stroke-miterlimit:10;" d="M284.454,275.676
				c0,0,6.1-0.296,8.166,4.496"/>
			
				<line style="fill:none;stroke:#263238;stroke-linecap:round;stroke-linejoin:round;stroke-miterlimit:10;" x1="320.926" y1="286.508" x2="323.8" y2="286.213"/>
			
				<line style="fill:none;stroke:#263238;stroke-linecap:round;stroke-linejoin:round;stroke-miterlimit:10;" x1="309.932" y1="287.638" x2="317.598" y2="286.85"/>
		</g>
		<path style="fill:#FFFFFF;stroke:#263238;stroke-linecap:round;stroke-linejoin:round;stroke-miterlimit:10;" d="M355.527,183.065
			c0,0,4.199-4.626,4.359-5.199c0.16-0.572,1.722-9.118,1.722-9.118l-1.98,1.781L355.527,183.065z"/>
		<path style="fill:#FFFFFF;stroke:#263238;stroke-linecap:round;stroke-linejoin:round;stroke-miterlimit:10;" d="M347.359,201.07
			c0,0-9.035-7.661-7.668-10.552c1.367-2.891,15.985-16.031,15.985-16.031s3.736-4.513,3.952-3.958
			c0.215,0.555-0.827,6.255-1.684,7.992c-0.857,1.737-7.882,12.248-7.882,12.248l3.94,3.576L347.359,201.07z"/>
	</g>
</g>
<g id="Arrow_1_1_">
	<g>
		<path style="fill:#263238;stroke:#263238;stroke-linecap:round;stroke-linejoin:round;stroke-miterlimit:10;" d="M441.644,26.481
			l-73.96,43.633l10.155,18.611C376.46,89.88,271.822,210.717,221.079,269.34c-17.146,19.81-42.088,31.141-68.288,31.025
			l-132.696-0.487v39.967l143.573,0.073c32.916,0.02,64.247-14.133,85.992-38.844L398.296,125.72l11.285,20.681l34.415-115.217
			L441.644,26.481z"/>
		<path style="fill:#FFFFFF;stroke:#263238;stroke-linecap:round;stroke-linejoin:round;stroke-miterlimit:10;" d="M365.333,65.411
			l10.155,18.61c-1.379,1.156-106.018,121.992-156.761,180.616c-17.147,19.81-42.088,31.141-68.288,31.025l-130.345-0.486v39.967
			l141.221,0.073c32.916,0.02,64.247-14.133,85.992-38.844l148.636-175.355l11.285,20.681l34.415-115.217L365.333,65.411z"/>
	</g>
</g>
</svg>
