<svg xmlns="http://www.w3.org/2000/svg" viewBox="0 0 32 32" id="Finance"><g transform="translate(.5 -1019.854)" fill="#1c1678" class="color000000 svgShape"><path fill="#8576ff" stroke="#000000" stroke-linejoin="round" d="m22.07 1027.126-2.756-2.756-4.827 4.825.097 1.63" color="#000" overflow="visible" style="isolation:auto;mix-blend-mode:normal;solid-color:#000;solid-opacity:1" class="color0aa06e svgShape colorStroke000000 svgStroke"></path><path fill="#7bc9ff" stroke="#000000" stroke-linejoin="round" d="m14.287 1032.392.786-1.544 8.062-4.276 2.98 5.62" color="#000" overflow="visible" style="isolation:auto;mix-blend-mode:normal;solid-color:#000;solid-opacity:1" class="color3cc676 svgShape colorStroke000000 svgStroke"></path><path fill="#3b3593" stroke="#000000" stroke-linejoin="round" d="M15.064 1032.354H26.5c.831 0 1.5.67 1.5 1.5v13c0 .831-.669 1.5-1.5 1.5h-19c-.831 0-1.5-.669-1.5-1.5v-10.76" color="#000" overflow="visible" style="isolation:auto;mix-blend-mode:normal;solid-color:#000;solid-opacity:1" class="color935435 svgShape colorStroke000000 svgStroke"></path><path style="isolation:auto;mix-blend-mode:normal;solid-color:#000;solid-opacity:1" d="M15.5 1033.854h1v1h-1zM17.5 1033.854h1v1h-1zM19.5 1033.854h1v1h-1zM21.5 1033.854h1v1h-1zM23.5 1033.854h1v1h-1zM25.5 1033.854h1v1h-1zM25.5 1035.854h1v1h-1zM25.5 1043.854h1v1h-1zM25.5 1045.854h1v1h-1zM23.5 1045.854h1v1h-1zM7.5 1037.854h1v1h-1zM7.5 1039.854h1v1h-1zM7.5 1041.854h1v1h-1zM7.5 1043.854h1v1h-1zM7.5 1045.854h1v1h-1zM9.5 1045.854h1v1h-1zM11.5 1045.854h1v1h-1zM13.5 1045.854h1v1h-1zM15.5 1045.854h1v1h-1zM17.5 1045.854h1v1h-1zM19.5 1045.854h1v1h-1zM21.5 1045.854h1v1h-1z" color="#000" overflow="visible" fill="#1c1678" class="color000000 svgShape"></path><path fill="#211c6f" stroke="#000000" stroke-linecap="round" stroke-linejoin="round" d="M22 1038.354c-1.108 0-2 .892-2 2s.892 2 2 2h6v-4h-6z" color="#000" overflow="visible" style="isolation:auto;mix-blend-mode:normal;solid-color:#000;solid-opacity:1" class="color6f3a1c svgShape colorStroke000000 svgStroke"></path><path fill="#a3ffd6" color="#000" overflow="visible" style="isolation:auto;mix-blend-mode:normal;solid-color:#000;solid-opacity:1" d="M21.5 1039.854h1v1h-1z" class="colorf2b233 svgShape"></path><circle cx="9.5" cy="1031.854" r="5.5" fill="#a3ffd6" stroke="#000000" stroke-linecap="round" stroke-linejoin="round" style="isolation:auto;mix-blend-mode:normal;solid-color:#000;solid-opacity:1" color="#000" overflow="visible" class="colorf2b233 svgShape colorStroke000000 svgStroke"></circle><path d="M9.33 1186.12q0-.218-.058-.402-.058-.183-.188-.343-.126-.16-.334-.295-.203-.135-.493-.26-.386-.14-.695-.324-.305-.189-.522-.44-.213-.252-.329-.58-.111-.329-.111-.759 0-.396.096-.725.102-.328.286-.57.188-.242.454-.396.266-.155.594-.208v-1.063h.682v1.068q.676.12 1.044.69.372.566.372 1.547h-.846q0-.324-.063-.594-.058-.27-.174-.47-.116-.197-.29-.308-.174-.112-.396-.112-.232 0-.401.082-.17.083-.285.233-.111.144-.17.352-.053.208-.053.46 0 .231.054.42.058.183.188.338.13.155.338.295.213.135.522.266.397.15.701.338.305.184.512.43.208.247.314.57.107.324.107.75 0 .415-.111.749-.112.328-.315.57-.202.242-.492.387-.29.144-.653.193v.928h-.672v-.928q-.304-.043-.59-.179-.284-.135-.507-.391-.217-.257-.348-.643-.13-.392-.13-.938h.85q0 .411.092.682.092.27.242.43.15.16.333.222.184.063.368.063.256 0 .454-.077.203-.082.338-.227.14-.15.213-.358.072-.212.072-.473z" font-family="Roboto Condensed" font-size="9.898" font-weight="400" letter-spacing="0" transform="scale(1.14778 .87124)" word-spacing="0" style="line-height:125%;-inkscape-font-specification:'Roboto Condensed, '" fill="#1c1678" class="color000000 svgShape"></path></g></svg>